<svg width="110" height="110" viewBox="0 0 110 110" fill="none" xmlns="http://www.w3.org/2000/svg">
<rect width="110" height="110" rx="8" fill="url(#paint0_linear_10_2)"/>
<path d="M25.6023 37.008V41.232H18.9303V43.584H23.7303V47.592H18.9303V54H13.6023V37.008H25.6023ZM34.055 54.168C32.023 54.168 30.343 53.696 29.015 52.752C27.703 51.792 26.991 50.392 26.879 48.552H32.543C32.623 49.528 33.055 50.016 33.839 50.016C34.127 50.016 34.367 49.952 34.559 49.824C34.767 49.68 34.871 49.464 34.871 49.176C34.871 48.776 34.655 48.456 34.223 48.216C33.791 47.96 33.119 47.672 32.207 47.352C31.119 46.968 30.215 46.592 29.495 46.224C28.791 45.856 28.183 45.32 27.671 44.616C27.159 43.912 26.911 43.008 26.927 41.904C26.927 40.8 27.207 39.864 27.767 39.096C28.343 38.312 29.119 37.72 30.095 37.32C31.087 36.92 32.199 36.72 33.431 36.72C35.511 36.72 37.159 37.2 38.375 38.16C39.607 39.12 40.255 40.472 40.319 42.216H34.583C34.567 41.736 34.447 41.392 34.223 41.184C33.999 40.976 33.727 40.872 33.407 40.872C33.183 40.872 32.999 40.952 32.855 41.112C32.711 41.256 32.639 41.464 32.639 41.736C32.639 42.12 32.847 42.44 33.263 42.696C33.695 42.936 34.375 43.232 35.303 43.584C36.375 43.984 37.255 44.368 37.943 44.736C38.647 45.104 39.255 45.616 39.767 46.272C40.279 46.928 40.535 47.752 40.535 48.744C40.535 49.784 40.279 50.72 39.767 51.552C39.255 52.368 38.511 53.008 37.535 53.472C36.559 53.936 35.399 54.168 34.055 54.168ZM66.887 37.008L62.999 54H56.375L54.407 44.352L52.439 54H45.815L41.927 37.008H47.663L49.199 47.712L51.503 37.008H57.311L59.615 47.712L61.151 37.008H66.887Z" fill="#5033C3"/>
<path d="M37.9964 72.168C35.9644 72.168 34.2844 71.696 32.9564 70.752C31.6444 69.792 30.9324 68.392 30.8204 66.552H36.4844C36.5644 67.528 36.9964 68.016 37.7804 68.016C38.0684 68.016 38.3084 67.952 38.5004 67.824C38.7084 67.68 38.8124 67.464 38.8124 67.176C38.8124 66.776 38.5964 66.456 38.1644 66.216C37.7324 65.96 37.0604 65.672 36.1484 65.352C35.0604 64.968 34.1564 64.592 33.4364 64.224C32.7324 63.856 32.1244 63.32 31.6124 62.616C31.1004 61.912 30.8524 61.008 30.8684 59.904C30.8684 58.8 31.1484 57.864 31.7084 57.096C32.2844 56.312 33.0604 55.72 34.0364 55.32C35.0284 54.92 36.1404 54.72 37.3724 54.72C39.4524 54.72 41.1004 55.2 42.3164 56.16C43.5484 57.12 44.1964 58.472 44.2604 60.216H38.5244C38.5084 59.736 38.3884 59.392 38.1644 59.184C37.9404 58.976 37.6684 58.872 37.3484 58.872C37.1244 58.872 36.9404 58.952 36.7964 59.112C36.6524 59.256 36.5804 59.464 36.5804 59.736C36.5804 60.12 36.7884 60.44 37.2044 60.696C37.6364 60.936 38.3164 61.232 39.2444 61.584C40.3164 61.984 41.1964 62.368 41.8844 62.736C42.5884 63.104 43.1964 63.616 43.7084 64.272C44.2204 64.928 44.4764 65.752 44.4764 66.744C44.4764 67.784 44.2204 68.72 43.7084 69.552C43.1964 70.368 42.4524 71.008 41.4764 71.472C40.5004 71.936 39.3404 72.168 37.9964 72.168ZM54.7724 67.464V72H52.7564C49.0444 72 47.1884 70.152 47.1884 66.456V62.904H45.5084V58.464H47.1884V55.2H52.5164V58.464H54.7244V62.904H52.5164V66.552C52.5164 66.872 52.5884 67.104 52.7324 67.248C52.8924 67.392 53.1484 67.464 53.5004 67.464H54.7724ZM63.2336 72.168C61.8736 72.168 60.6496 71.888 59.5616 71.328C58.4736 70.768 57.6176 69.968 56.9936 68.928C56.3856 67.872 56.0816 66.64 56.0816 65.232C56.0816 63.824 56.3856 62.6 56.9936 61.56C57.6176 60.504 58.4736 59.696 59.5616 59.136C60.6496 58.576 61.8736 58.296 63.2336 58.296C64.5936 58.296 65.8176 58.576 66.9056 59.136C67.9936 59.696 68.8416 60.504 69.4496 61.56C70.0736 62.6 70.3856 63.824 70.3856 65.232C70.3856 66.64 70.0736 67.872 69.4496 68.928C68.8416 69.968 67.9936 70.768 66.9056 71.328C65.8176 71.888 64.5936 72.168 63.2336 72.168ZM63.2336 67.56C63.7296 67.56 64.1456 67.368 64.4816 66.984C64.8176 66.584 64.9856 66 64.9856 65.232C64.9856 64.464 64.8176 63.888 64.4816 63.504C64.1456 63.104 63.7296 62.904 63.2336 62.904C62.7376 62.904 62.3216 63.104 61.9856 63.504C61.6496 63.888 61.4816 64.464 61.4816 65.232C61.4816 66 61.6416 66.584 61.9616 66.984C62.2976 67.368 62.7216 67.56 63.2336 67.56ZM77.3874 60.96C77.9314 60.176 78.5954 59.552 79.3794 59.088C80.1634 58.608 80.9794 58.368 81.8274 58.368V64.056H80.3154C79.3074 64.056 78.5634 64.232 78.0834 64.584C77.6194 64.936 77.3874 65.56 77.3874 66.456V72H72.0594V58.464H77.3874V60.96ZM96.3665 65.112C96.3665 65.48 96.3425 65.832 96.2945 66.168H87.7265C87.8065 67.336 88.2945 67.92 89.1905 67.92C89.7665 67.92 90.1825 67.656 90.4385 67.128H96.0785C95.8865 68.088 95.4785 68.952 94.8545 69.72C94.2465 70.472 93.4705 71.072 92.5265 71.52C91.5985 71.952 90.5745 72.168 89.4545 72.168C88.1105 72.168 86.9105 71.888 85.8545 71.328C84.8145 70.768 83.9985 69.968 83.4065 68.928C82.8305 67.872 82.5425 66.64 82.5425 65.232C82.5425 63.824 82.8305 62.6 83.4065 61.56C83.9985 60.504 84.8145 59.696 85.8545 59.136C86.9105 58.576 88.1105 58.296 89.4545 58.296C90.7985 58.296 91.9905 58.576 93.0305 59.136C94.0865 59.68 94.9025 60.464 95.4785 61.488C96.0705 62.512 96.3665 63.72 96.3665 65.112ZM90.9665 63.84C90.9665 63.392 90.8225 63.056 90.5345 62.832C90.2465 62.592 89.8865 62.472 89.4545 62.472C88.5105 62.472 87.9585 62.928 87.7985 63.84H90.9665Z" fill="white"/>
<defs>
<linearGradient id="paint0_linear_10_2" x1="55" y1="0" x2="55" y2="110" gradientUnits="userSpaceOnUse">
<stop stop-color="#0B0B0B"/>
<stop offset="1" stop-color="#160F32"/>
</linearGradient>
</defs>
</svg>
